<?xml version="1.0" encoding="utf-8"?>
<!-- Generator: Adobe Illustrator 24.0.1, SVG Export Plug-In . SVG Version: 6.00 Build 0)  -->
<svg version="1.1" id="Layer_1" xmlns="http://www.w3.org/2000/svg" xmlns:xlink="http://www.w3.org/1999/xlink" x="0px" y="0px"
	 viewBox="0 0 100 100" style="enable-background:new 0 0 100 100;" xml:space="preserve">
<style type="text/css">
	.st0{fill:none;stroke:#231F20;stroke-width:2.9428;stroke-linecap:round;stroke-linejoin:round;stroke-miterlimit:10;}
	.st1{fill:#FFFFFF;}
	.st2{fill:#231F20;}
</style>
<g>
	<polyline class="st0" points="25.3,25.3 74.7,25.3 74.7,74.7 	"/>
	<g>
		<g>
			<path class="st1" d="M13.98,48.18c-6.37,0-11.56-5.19-11.56-11.56V13.98c0-6.37,5.19-11.56,11.56-11.56h22.64
				c6.37,0,11.56,5.19,11.56,11.56v22.64c0,6.37-5.19,11.56-11.56,11.56H13.98z"/>
			<path class="st2" d="M36.62,3.9c5.56,0,10.09,4.53,10.09,10.09v22.64c0,5.56-4.53,10.09-10.09,10.09H13.98
				c-5.56,0-10.09-4.53-10.09-10.09V13.98C3.9,8.42,8.42,3.9,13.98,3.9H36.62 M36.62,0.95H13.98c-7.17,0-13.03,5.86-13.03,13.03
				v22.64c0,7.17,5.86,13.03,13.03,13.03h22.64c7.17,0,13.03-5.86,13.03-13.03V13.98C49.65,6.82,43.79,0.95,36.62,0.95L36.62,0.95z"
				/>
		</g>
		<g>
			<path class="st1" d="M63.38,97.58c-6.37,0-11.56-5.18-11.56-11.56V63.38c0-6.37,5.19-11.56,11.56-11.56h22.64
				c6.37,0,11.56,5.19,11.56,11.56v22.64c0,6.37-5.18,11.56-11.56,11.56H63.38z"/>
			<path class="st2" d="M86.02,53.29c5.56,0,10.09,4.53,10.09,10.09v22.64c0,5.56-4.53,10.09-10.09,10.09H63.38
				c-5.56,0-10.09-4.53-10.09-10.09V63.38c0-5.56,4.53-10.09,10.09-10.09H86.02 M86.02,50.35H63.38c-7.17,0-13.03,5.86-13.03,13.03
				v22.64c0,7.17,5.86,13.03,13.03,13.03h22.64c7.17,0,13.03-5.86,13.03-13.03V63.38C99.05,56.21,93.18,50.35,86.02,50.35
				L86.02,50.35z"/>
		</g>
	</g>
</g>
</svg>
